<svg width="47" height="30" viewBox="0 0 47 30" fill="none" xmlns="http://www.w3.org/2000/svg">
<path d="M29.8542 25.9454H17.1445V3.10518H29.8542V25.9454Z" fill="#FF5F00"/>
<path d="M17.9521 14.5251C17.9521 9.89162 20.122 5.76538 23.5001 3.10595C20.9425 1.08885 17.7798 -0.0039062 14.525 1.04921e-05C6.5017 1.04921e-05 0 6.50368 0 14.5251C0 22.5465 6.5017 29.0501 14.5231 29.0501C17.7798 29.054 20.9425 27.9613 23.4982 25.9442C20.122 23.2847 17.9521 19.1585 17.9521 14.5251Z" fill="#EB001B"/>
<path d="M46.9996 14.5251C46.9996 22.5465 40.4979 29.0501 32.4766 29.0501C29.2198 29.054 26.0571 27.9613 23.4995 25.9442C26.8777 23.2847 29.0475 19.1585 29.0475 14.5251C29.0475 9.89162 26.8777 5.76538 23.4995 3.10595C26.0571 1.08885 29.2198 -0.0039062 32.4766 1.04921e-05C40.4979 1.04921e-05 46.9996 6.50368 46.9996 14.5251Z" fill="#F79E1B"/>
</svg>
